#Comment line ignore any data following # character 
#Hierarchical Translation and Rotation (.htr) file 
[Header]	
#Header keywords are followed by a single value 
FileType HTR		#Single word string
DataType HTRS		#Translation followed by rotation and scale data
FileVersion 1		#integer
NumSegments 29		#integer
NumFrames 4		#integer
DataFrameRate 30		#integer, data frame rate in this file
EulerRotationOrder ZYX
CalibrationUnits mm
RotationUnits Degrees
GlobalAxisofGravity Y
BoneLengthAxis Y
ScaleFactor 1.00
[SegmentNames&Hierarchy]
#CHILD	PARENT
MASTER GLOBAL
weapon MASTER
back_slider weapon
front_bottom weapon
front_middle_part1 weapon
front_middle_part2 weapon
front_middle_part3 weapon
front_middle_part4 weapon
front_top weapon
wing_bottom_left weapon
wing_bottom_right weapon
wing_top_left weapon
wing_top_right weapon
front_bottom_rumble_left front_bottom
front_bottom_rumble_right front_bottom
back_rotate_bottom_left front_middle_part3
back_rotate_bottom_right front_middle_part3
back_rotate_top_left front_middle_part3
back_rotate_top_right front_middle_part3
front_middle_part3_left front_middle_part3
front_middle_part3_right front_middle_part3
wing_bottom_left_buckets_1 wing_bottom_left
wing_bottom_left_buckets_2 wing_bottom_left
wing_bottom_left_buckets_3 wing_bottom_left
wing_bottom_right_buckets wing_bottom_right
wing_top_left_buckets wing_top_left
wing_top_left_buckets_1 wing_top_left
wing_top_left_buckets_3 wing_top_left
wing_top_right_buckets wing_top_right
[BasePosition]
#SegmentName Tx, Ty, Tz, Rx, Ry, Rz, BoneLength
MASTER 0.000000 0.000000 0.000000 -90.000000 0.000000 0.000000 10.000000 
weapon 0.000000 0.000000 0.000000 0.000000 0.000000 0.000000 10.000000 
back_slider 0.000000 0.000000 0.000000 0.000000 0.000000 0.000000 10.000000 
front_bottom 0.000000 0.000000 0.000000 0.000000 0.000000 0.000000 10.000000 
front_middle_part1 0.000000 0.000000 0.000000 0.000000 0.000000 0.000000 10.000000 
front_middle_part2 0.000000 0.000000 0.000000 0.000000 0.000000 0.000000 10.000000 
front_middle_part3 0.000000 0.000000 0.000000 0.000000 0.000000 0.000000 10.000000 
front_middle_part4 0.000000 0.000000 0.000000 0.000000 0.000000 0.000000 10.000000 
front_top 0.000000 0.000000 0.000000 0.000000 0.000000 0.000000 10.000000 
wing_bottom_left 0.000000 0.000000 0.000000 0.000000 0.000000 0.000000 10.000000 
wing_bottom_right 0.000000 0.000000 0.000000 0.000000 0.000000 0.000000 10.000000 
wing_top_left 0.000000 0.000000 0.000000 0.000000 0.000000 0.000000 10.000000 
wing_top_right 0.000000 0.000000 0.000000 0.000000 0.000000 0.000000 10.000000 
front_bottom_rumble_left 0.000000 0.000000 0.000000 0.000000 0.000000 0.000000 10.000000 
front_bottom_rumble_right 0.000000 0.000000 0.000000 0.000000 0.000000 0.000000 10.000000 
back_rotate_bottom_left 0.000000 0.000000 0.000000 0.000000 0.000000 0.000000 10.000000 
back_rotate_bottom_right 0.000000 0.000000 0.000000 0.000000 0.000000 0.000000 10.000000 
back_rotate_top_left 0.000000 0.000000 0.000000 0.000000 0.000000 0.000000 10.000000 
back_rotate_top_right 0.000000 0.000000 0.000000 0.000000 0.000000 0.000000 10.000000 
front_middle_part3_left 0.000000 0.000000 0.000000 0.000000 0.000000 0.000000 10.000000 
front_middle_part3_right 0.000000 0.000000 0.000000 0.000000 0.000000 0.000000 10.000000 
wing_bottom_left_buckets_1 0.000000 0.000000 0.000000 0.000000 0.000000 0.000000 10.000000 
wing_bottom_left_buckets_2 0.000000 0.000000 0.000000 0.000000 0.000000 0.000000 10.000000 
wing_bottom_left_buckets_3 0.000000 0.000000 0.000000 0.000000 0.000000 0.000000 10.000000 
wing_bottom_right_buckets 0.000000 0.000000 0.000000 0.000000 0.000000 0.000000 10.000000 
wing_top_left_buckets 0.000000 0.000000 0.000000 0.000000 0.000000 0.000000 10.000000 
wing_top_left_buckets_1 0.000000 0.000000 0.000000 0.000000 0.000000 0.000000 10.000000 
wing_top_left_buckets_3 0.000000 0.000000 0.000000 0.000000 0.000000 0.000000 10.000000 
wing_top_right_buckets 0.000000 0.000000 0.000000 0.000000 0.000000 0.000000 10.000000 
#Beginning of Data. Separated by tabs
#Fr	Tx	Ty	Tz	Rx	Ry	Rz	SF
[MASTER]
29 -0.000019 0.000000 0.000000 0.000000 -0.000000 0.000000 0.000019
30 -0.000019 0.000000 0.000000 0.000000 -0.000000 0.000000 0.000019
31 -0.000019 0.000000 0.000000 0.000000 -0.000000 0.000000 0.000019
32 -0.000019 0.000000 0.000000 0.000000 -0.000000 0.000000 0.000019
[weapon]
29 -0.000076 -79.014702 86.001579 0.000000 0.000000 -0.000020 116.788681
30 -0.000076 -79.014702 86.001579 0.000000 0.000000 -0.000020 116.788681
31 -0.000076 -79.014702 86.001579 0.000000 0.000000 -0.000020 116.788681
32 -0.000076 -79.014702 86.001579 0.000000 0.000000 -0.000020 116.788681
[back_slider]
29 0.000076 -66.051682 -85.991974 0.000000 -0.000000 0.000000 108.431747
30 0.000076 -70.150726 -85.991974 0.000000 -0.000000 0.000000 110.976318
31 0.000076 -73.876236 -85.991974 0.000000 -0.000000 0.000000 113.368065
32 0.000076 -77.178650 -85.991898 0.000000 -0.000000 0.000000 115.547173
[front_bottom]
29 0.000013 715.461548 -219.311981 5.374644 -0.001580 179.998276 748.320068
30 0.000000 717.646179 -219.460907 5.132053 -0.001584 179.998276 750.452637
31 0.000013 719.571106 -219.583633 4.891969 -0.001587 179.998276 752.329407
32 0.000025 721.496033 -219.706375 4.651885 -0.001591 179.998276 754.206482
[front_middle_part1]
29 0.000000 519.313477 -85.992035 179.998825 -77.823830 179.998825 526.384949
30 0.000000 519.313477 -85.992035 179.998825 -73.706802 179.998825 526.384949
31 0.000000 519.313477 -85.992035 179.998810 -69.794174 179.998810 526.384949
32 0.000000 519.313477 -85.992035 179.998810 -66.120186 179.998810 526.384949
[front_middle_part2]
29 0.000000 477.040344 -85.992035 0.020205 83.340027 0.020205 484.728912
30 0.000000 477.040344 -85.992035 0.032767 85.894592 0.032767 484.728912
31 0.000000 477.040344 -85.992035 0.075304 88.213921 0.075304 484.728912
32 0.000000 477.040344 -85.992035 0.000000 89.715385 -0.000006 484.728912
[front_middle_part3]
29 0.000076 -232.250519 -85.991974 0.000000 -0.000000 0.000000 247.658875
30 0.000114 -232.791367 -85.991974 0.000000 -0.000000 0.000000 248.166153
31 0.000095 -232.837830 -85.991974 0.000000 -0.000000 0.000000 248.209732
32 0.000076 -232.884293 -85.991974 0.000000 -0.000000 0.000000 248.253326
[front_middle_part4]
29 0.000000 -443.853668 -85.992035 0.000000 -0.000000 0.000000 452.106964
30 0.000000 -443.853668 -85.992035 0.000000 -0.000000 0.000000 452.106964
31 0.000000 -443.853668 -85.992035 0.000000 -0.000000 0.000000 452.106964
32 0.000000 -443.853668 -85.992035 0.000000 -0.000000 0.000000 452.106964
[front_top]
29 0.000038 668.686707 -165.207672 -16.110001 0.001876 0.001411 688.792725
30 0.000038 671.999512 -165.379623 -16.774611 0.001884 0.001400 692.050415
31 0.000038 674.666260 -165.517883 -17.404757 0.001892 0.001390 694.673157
32 0.000000 676.635132 -165.620270 -18.000389 0.001899 0.001380 696.609802
[wing_bottom_left]
29 -124.333710 235.191696 -217.766312 164.422729 53.456638 160.864548 343.796692
30 -124.333710 235.191696 -217.766312 163.951157 53.353962 160.277664 343.796692
31 -124.333710 235.191696 -217.766312 163.533371 53.263744 159.755707 343.796692
32 -124.333710 235.191696 -217.766312 163.168579 53.186668 159.297867 343.796692
[wing_bottom_right]
29 124.947586 235.191696 -217.766144 0.000000 54.999989 0.000000 344.019073
30 124.947586 235.191696 -217.766144 0.000000 54.999989 0.000000 344.019073
31 124.947586 235.191696 -217.766144 0.000000 54.999989 0.000000 344.019073
32 124.947586 235.191696 -217.766144 0.000000 54.999989 0.000000 344.019073
[wing_top_left]
29 -124.333710 235.191696 62.502743 -162.102280 -52.936020 157.967911 273.277527
30 -124.333710 235.191696 62.502743 -161.625000 -52.812073 157.363586 273.277527
31 -124.333710 235.191696 62.502743 -161.197281 -52.707680 156.831161 273.277527
32 -124.333710 235.191696 62.502743 -160.848343 -52.611176 156.388611 273.277527
[wing_top_right]
29 131.595657 235.191696 62.502682 -0.000000 -55.000015 0.000000 276.657074
30 131.595657 235.191696 62.502682 -0.000000 -55.000015 0.000000 276.657074
31 131.595657 235.191696 62.502682 -0.000000 -55.000015 0.000000 276.657074
32 131.595657 235.191696 62.502682 -0.000000 -55.000015 0.000000 276.657074
[front_bottom_rumble_left]
29 163.070297 263.743958 -16.969442 -129.881882 18.229330 75.387009 310.549133
30 163.070297 263.743958 -16.969442 -129.881882 18.229330 75.387009 310.549133
31 163.070297 263.743958 -16.969442 -129.881882 18.229330 75.387009 310.549133
32 163.070297 263.743958 -16.969442 -129.881882 18.229330 75.387009 310.549133
[front_bottom_rumble_right]
29 -163.070480 263.743835 -16.969442 -50.118145 18.229362 104.612976 310.549133
30 -163.070480 263.743835 -16.969442 -50.118145 18.229362 104.612976 310.549133
31 -163.070480 263.743835 -16.969442 -50.118145 18.229362 104.612976 310.549133
32 -163.070480 263.743835 -16.969442 -50.118145 18.229362 104.612976 310.549133
[back_rotate_bottom_left]
29 -38.067558 -195.870575 -38.097980 0.000000 -0.000000 0.000000 203.140045
30 -38.067558 -195.870575 -38.097980 0.000000 -0.000000 0.000000 203.140045
31 -38.067558 -195.870575 -38.097980 0.000000 -0.000000 0.000000 203.140045
32 -38.067558 -195.870575 -38.097980 0.000000 -0.000000 0.000000 203.140045
[back_rotate_bottom_right]
29 38.098610 -195.870575 -38.057903 0.000000 -0.000000 0.000000 203.138351
30 38.098610 -195.870575 -38.057903 0.000000 -0.000000 0.000000 203.138351
31 38.098610 -195.870575 -38.057903 0.000000 -0.000000 0.000000 203.138351
32 38.098610 -195.870575 -38.057903 0.000000 -0.000000 0.000000 203.138351
[back_rotate_top_left]
29 -38.074085 -195.870575 38.105885 0.000000 -0.000000 0.000000 203.142746
30 -38.074085 -195.870575 38.105885 0.000000 -0.000000 0.000000 203.142746
31 -38.074085 -195.870575 38.105885 0.000000 -0.000000 0.000000 203.142746
32 -38.074085 -195.870575 38.105885 0.000000 -0.000000 0.000000 203.142746
[back_rotate_top_right]
29 38.111603 -195.870575 38.079086 0.000000 -0.000000 0.000000 203.144760
30 38.111603 -195.870575 38.079086 0.000000 -0.000000 0.000000 203.144760
31 38.111603 -195.870575 38.079086 0.000000 -0.000000 0.000000 203.144760
32 38.111603 -195.870575 38.079086 0.000000 -0.000000 0.000000 203.144760
[front_middle_part3_left]
29 -90.176392 364.727112 0.462952 90.000778 0.000075 -10.911199 375.709808
30 -90.176392 364.727112 0.462952 89.997696 -0.000276 -13.682938 375.709808
31 -90.176392 364.727112 0.462952 89.998505 -0.000218 -16.597048 375.709808
32 -90.176392 364.727112 0.462952 89.999390 -0.000106 -19.618580 375.709808
[front_middle_part3_right]
29 91.046051 364.727081 0.046265 -90.000000 0.000003 180.000000 375.919159
30 91.046051 364.727081 0.046265 -90.000000 0.000003 180.000000 375.919159
31 91.046051 364.727081 0.046265 -90.000000 0.000003 180.000000 375.919159
32 91.046051 364.727081 0.046265 -90.000000 0.000003 180.000000 375.919159
[wing_bottom_left_buckets_1]
29 -47.610477 -288.454193 -9.889640 -0.000027 0.000020 -0.000035 292.524170
30 -47.610477 -288.454193 -9.889640 -0.000027 0.000020 -0.000035 292.524170
31 -47.610477 -288.454193 -9.889640 -0.000027 0.000020 -0.000035 292.524170
32 -47.610477 -288.454193 -9.889640 -0.000027 0.000020 -0.000035 292.524170
[wing_bottom_left_buckets_2]
29 -47.610565 -358.672546 -9.889595 -0.000031 -0.000003 -0.000031 361.953827
30 -47.610565 -358.672546 -9.889595 -0.000031 -0.000003 -0.000031 361.953827
31 -47.610565 -358.672546 -9.889595 -0.000031 -0.000003 -0.000031 361.953827
32 -47.610565 -358.672546 -9.889595 -0.000031 -0.000003 -0.000031 361.953827
[wing_bottom_left_buckets_3]
29 -47.610672 -428.104828 -9.889513 -0.000027 0.000020 -0.000035 430.857635
30 -47.610672 -428.104828 -9.889513 -0.000027 0.000020 -0.000035 430.857635
31 -47.610672 -428.104828 -9.889513 -0.000027 0.000020 -0.000035 430.857635
32 -47.610672 -428.104828 -9.889513 -0.000027 0.000020 -0.000035 430.857635
[wing_bottom_right_buckets]
29 -47.962635 -358.672546 9.386807 0.000027 0.000061 -0.000035 361.986908
30 -47.962635 -358.672546 9.386807 0.000027 0.000061 -0.000035 361.986908
31 -47.962635 -358.672546 9.386807 0.000027 0.000061 -0.000035 361.986908
32 -47.962635 -358.672546 9.386807 0.000027 0.000061 -0.000035 361.986908
[wing_top_left_buckets]
29 -45.484066 -358.586609 10.598831 0.001904 13.893493 0.001904 361.615112
30 -45.484066 -358.586609 10.598831 0.001927 14.960312 0.001927 361.615112
31 -45.484066 -358.586609 10.598831 0.001951 16.028444 0.001951 361.615112
32 -45.484066 -358.586609 10.598831 0.001951 16.028444 0.001951 361.615112
[wing_top_left_buckets_1]
29 -45.484005 -287.973450 10.598879 0.000027 0.000000 -0.000035 291.735931
30 -45.484005 -287.973450 10.598879 0.000027 0.000000 -0.000035 291.735931
31 -45.484005 -287.973450 10.598879 0.000027 0.000000 -0.000035 291.735931
32 -45.484005 -287.973450 10.598879 0.000027 0.000000 -0.000035 291.735931
[wing_top_left_buckets_3]
29 -45.484154 -426.601654 10.598794 0.000027 0.000000 -0.000035 429.150452
30 -45.484154 -426.601654 10.598794 0.000027 0.000000 -0.000035 429.150452
31 -45.484154 -426.601654 10.598794 0.000027 0.000000 -0.000035 429.150452
32 -45.484154 -426.601654 10.598794 0.000027 0.000000 -0.000035 429.150452
[wing_top_right_buckets]
29 -46.906902 -358.586700 -9.449236 -0.000044 -0.000038 -0.000035 361.765076
30 -46.906902 -358.586700 -9.449236 -0.000044 -0.000038 -0.000035 361.765076
31 -46.906902 -358.586700 -9.449236 -0.000044 -0.000038 -0.000035 361.765076
32 -46.906902 -358.586700 -9.449236 -0.000044 -0.000038 -0.000035 361.765076
